<svg width="1024" height="1024" viewBox="0 0 1024 1024" fill="none" xmlns="http://www.w3.org/2000/svg">
<rect width="1024" height="1024" fill="white"/>
<rect width="1024" height="1024" fill="black"/>
<path d="M770.383 306.623C772.456 306.209 774.565 306 776.679 306H776.813C780.574 306 784.304 306.676 787.825 307.997L788.926 308.41C789.973 308.802 790.982 309.289 791.941 309.865L792.865 310.419C794.6 311.46 796.082 312.873 797.205 314.557V314.557C798.701 316.802 799.5 319.44 799.5 322.138V324.158C799.5 326.663 798.759 329.112 797.369 331.196V331.196C796.144 333.034 794.461 334.519 792.486 335.507L781.5 341V341C769.532 346.319 758.149 352.865 747.531 360.533L745.5 362L743.257 364.039C737.431 369.336 732.094 375.146 727.311 381.401V381.401C723.442 386.46 719.947 391.795 716.854 397.363L716.708 397.626C713.241 403.866 710.275 410.37 707.835 417.078L703.5 429V429C702.17 434.983 701.475 441.09 701.427 447.219L700.701 538.683C700.567 555.537 699.163 572.357 696.5 589V589L691.5 608L683.5 630L674.5 649L673.107 651.322C666.044 663.093 658.156 674.347 649.5 685V685L638.5 698L630.5 706L622.5 713L605.5 726L589.5 736L566.5 748L546.5 756L525.5 762L510.5 765L489.5 767H466.5L439.5 764L416.5 759L395.5 752L370.5 740L353.5 730L336.5 718L325.5 709L316.183 701.547C315.751 701.201 315.5 700.678 315.5 700.125V700.125C315.5 699.436 315.11 698.805 314.494 698.497L312.332 697.416C311.781 697.14 311.278 696.778 310.842 696.342L308.067 693.567C307.704 693.204 307.5 692.711 307.5 692.197V692.197C307.5 691.464 307.085 690.793 306.429 690.464L304.528 689.514C303.85 689.175 303.252 688.697 302.772 688.11L294.5 678L286.5 669L273.5 651L261.5 631L250.5 606L240.5 575L234.5 547L233.095 537.869C232.699 535.294 232.5 532.691 232.5 530.085V523.59C232.5 519.914 233.356 516.288 235 513V513C236.644 509.712 239.031 506.852 241.972 504.646L245.006 502.371C245.335 502.124 245.685 501.907 246.053 501.724V501.724C247.005 501.248 248.054 501 249.118 501H251.894C254.898 501 257.833 501.889 260.332 503.555V503.555C261.767 504.511 263.029 505.705 264.063 507.084L265.156 508.541C267.36 511.48 268.912 514.855 269.709 518.441L272.5 531L276.5 555L282.5 576L290.5 597L301.5 619L313.5 638L324.5 651L331.5 660L348.5 677L365.5 690L378.5 698L399.5 709L425.5 719L450.5 725V725C459.154 726.331 467.897 727 476.653 727H478.185C489.705 727 501.202 725.963 512.536 723.903L517.5 723L540.5 716L542.398 715.165C557.77 708.401 572.526 700.316 586.5 691V691L597.5 682V682C604.157 676.009 610.348 669.519 616.019 662.587L616.5 662L624.5 652L635.5 634L645.5 615L652.5 596L656.5 579L658.5 565L659.5 533V476L660.108 449.258C660.369 437.769 661.503 426.317 663.5 415V415V415C667.49 402.365 672.742 390.165 679.176 378.583L679.5 378L689.5 364L701.5 350L713.5 338L723.5 329L726.717 326.661C731.897 322.893 737.379 319.56 743.108 316.696V316.696C748.03 314.235 753.12 312.127 758.34 310.387L768.5 307L770.383 306.623Z" fill="#FBFBFB"/>
<path d="M572.957 249.709C581.964 247.907 591.126 247 600.311 247V247C611.068 247 621.788 248.244 632.258 250.708L633.5 251L649.5 257L654.767 259.633C660.581 262.54 666.167 265.882 671.477 269.631L672.295 270.208C677.755 274.062 682.876 278.376 687.602 283.102L690.393 285.893C692.462 287.962 694.381 290.175 696.136 292.515L707.694 307.926C708.217 308.623 708.5 309.471 708.5 310.343V310.343C708.5 311.955 707.539 313.412 706.058 314.047L702.491 315.575C701.832 315.858 701.145 316.068 700.441 316.202L682.87 319.549C681.294 319.849 679.692 320 678.087 320V320C671.308 320 664.807 317.307 660.014 312.514L654.795 307.295C652.605 305.105 650.186 303.155 647.58 301.48L642.661 298.318C639.227 296.11 635.605 294.21 631.836 292.64V292.64C627.622 290.884 623.245 289.549 618.769 288.654L618 288.5C613.012 287.502 607.938 287 602.851 287H595.039C590.696 287 586.37 287.533 582.156 288.586V288.586C578.397 289.526 574.751 290.874 571.285 292.608L569.14 293.68C564.724 295.888 560.537 298.527 556.64 301.557L553.5 304V304C549.514 307.322 545.927 311.097 542.814 315.248L538.5 321L535.909 325.442C532.975 330.472 530.472 335.741 528.428 341.193L527.11 344.708C526.038 347.565 525.199 350.503 524.601 353.495V353.495C523.869 357.156 523.5 360.88 523.5 364.614V561V561C522.169 574.971 519.56 588.79 515.705 602.283L515.5 603L511.76 612.082C509.591 617.35 506.95 622.411 503.87 627.203V627.203C500.962 631.726 497.673 635.993 494.04 639.957L488.5 646V646C483.177 651.323 477.399 656.171 471.231 660.488L470.5 661V661C460.521 666.322 450.073 670.714 439.289 674.119L436.5 675L436.117 675.077C429.721 676.356 423.215 677 416.693 677H411.039C406.696 677 402.37 676.467 398.156 675.414L397.94 675.36C394.324 674.456 390.818 673.159 387.484 671.492L383.588 669.544C380.228 667.864 377.228 665.546 374.754 662.719L373.167 660.905C372.064 659.644 371.182 658.205 370.56 656.65V656.65C369.86 654.899 369.5 653.031 369.5 651.146V650.065C369.5 648.059 370.045 646.092 371.077 644.372L371.174 644.209C372.045 642.759 373.259 641.545 374.709 640.674V640.674C376.526 639.585 378.633 639.081 380.746 639.232L391.5 640H407.841C412.933 640 418.01 639.462 422.989 638.395L423.583 638.268C427.519 637.424 431.37 636.221 435.086 634.673V634.673C439.35 632.896 443.415 630.674 447.213 628.045L450.964 625.448C453.317 623.819 455.518 621.982 457.541 619.959V619.959C460.171 617.329 462.485 614.4 464.435 611.231L469.5 603L476.5 587L480.5 573L481.5 567L482.5 536V394L483.094 368.46C483.364 356.851 484.841 345.303 487.5 334V334L489.285 327.932C491.422 320.666 494.356 313.659 498.034 307.039V307.039C501.005 301.69 504.449 296.618 508.323 291.883L511.5 288L519.261 280.239C523.414 276.086 527.897 272.242 532.633 268.769V268.769C537.855 264.94 543.411 261.544 549.203 258.649V258.649C554.061 256.219 559.087 254.138 564.24 252.42L571.5 250L572.957 249.709Z" fill="#FBFBFB"/>
<path d="M239.086 250.138C241.323 249.392 243.716 249.243 246.029 249.706L247.419 249.984C250.745 250.649 253.83 252.197 256.351 254.466L262.5 260L273.5 272L287.5 284L300.5 294L314.5 304L330.5 316L350.5 328L372.5 341L389.5 349L413.5 358L438.5 364L459.5 368V368C464.136 368.58 467.699 372.384 467.973 377.048L469.5 403V403C470.023 406.141 467.601 409 464.417 409H458.5L443.5 407L419.5 402L389.5 392L370.5 384L360.5 380L344.5 372L326.5 361L315.5 353L293.5 339L274.455 325.149C273.225 324.255 271.5 325.134 271.5 326.654V326.654C271.5 326.883 271.542 327.109 271.624 327.323L281.5 353L293.5 378L308.5 403L320.5 420L331.5 434L343.5 448L352.5 458L359.5 466L367.5 473L380.5 484L390.5 491L410.5 503L425.5 510L447.5 518L462.4 521.725C463.12 521.905 463.777 522.277 464.301 522.801V522.801C465.069 523.569 465.5 524.61 465.5 525.695V559.482C465.5 559.826 465.458 560.169 465.374 560.503V560.503C464.871 562.516 462.976 563.861 460.91 563.674L454.589 563.099C453.865 563.033 453.148 562.899 452.449 562.7L439.5 559L416.5 551L400.5 544L377.5 531L363.5 522L345.5 508L333.5 497L325.5 490L305.5 470L296.5 459L284.5 443L275.5 430L263.5 410L252.5 389L240.5 360L231.5 332L225.5 301L224.5 293V272.793C224.5 269.627 225.104 266.49 226.28 263.55L226.352 263.371C227.764 259.841 229.992 256.695 232.853 254.191L234.448 252.795C235.803 251.61 237.379 250.707 239.086 250.138V250.138Z" fill="#FBFBFB"/>
<path d="M387.949 432.189C389.561 430.173 392.003 429 394.584 429H396.481C397.818 429 399.147 429.216 400.416 429.639L434.5 441L463.162 447.918C463.387 447.973 463.604 448.052 463.811 448.156V448.156C464.846 448.673 465.5 449.731 465.5 450.888V470.37C465.5 478.69 458.24 485.146 449.977 484.174V484.174C448.995 484.058 448.028 483.838 447.093 483.518L419.536 474.069C415.519 472.692 411.621 470.988 407.882 468.975L403.739 466.744C401.586 465.585 399.564 464.197 397.707 462.606V462.606C394.92 460.218 392.537 457.396 390.649 454.249L389.332 452.053C388.117 450.029 387.209 447.836 386.637 445.546L386.217 443.866C385.743 441.973 385.642 440.007 385.918 438.075L386.172 436.296C386.387 434.793 387 433.375 387.949 432.189V432.189Z" fill="#FBFBFB"/>
<circle cx="595.5" cy="530" r="17" fill="white"/>
<circle cx="595.5" cy="469" r="17" fill="white"/>
<circle cx="595.5" cy="358" r="28" fill="white"/>
<path d="M509 767H513L516 771L512 772V775H510V777H508V769L509 767Z" fill="#0B0B0D"/>
<path d="M619 336L621 338L624 348L626 353H624L619 344V336Z" fill="#100F11"/>
</svg>
