<svg width="575" height="520" viewBox="0 0 575 520" fill="none" xmlns="http://www.w3.org/2000/svg">
<path d="M545.883 59.6234C547.956 59.2088 550.065 59 552.179 59H552.313C556.074 59 559.804 59.6764 563.325 60.997L564.426 61.4098C565.473 61.8025 566.482 62.2895 567.441 62.8648L568.365 63.4189C570.1 64.46 571.582 65.8734 572.705 67.557V67.557C574.201 69.802 575 72.4398 575 75.1379V77.1584C575 79.6633 574.259 82.1122 572.869 84.1964V84.1964C571.644 86.0336 569.961 87.5194 567.986 88.5069L557 94V94C545.032 99.319 533.649 105.865 523.031 113.533L521 115L518.757 117.039C512.931 122.336 507.594 128.146 502.811 134.401V134.401C498.942 139.46 495.447 144.795 492.354 150.363L492.208 150.626C488.741 156.866 485.775 163.37 483.335 170.078L479 182V182C477.67 187.983 476.975 194.09 476.927 200.219L476.201 291.683C476.067 308.537 474.663 325.357 472 342V342L467 361L459 383L450 402L448.607 404.322C441.544 416.093 433.656 427.347 425 438V438L414 451L406 459L398 466L381 479L365 489L342 501L322 509L301 515L286 518L265 520H242L215 517L192 512L171 505L146 493L129 483L112 471L101 462L91.6832 454.547C91.2514 454.201 91 453.678 91 453.125V453.125C91 452.436 90.6104 451.805 89.9937 451.497L87.8319 450.416C87.2809 450.14 86.7779 449.778 86.3424 449.342L83.5675 446.567C83.2041 446.204 83 445.711 83 445.197V445.197C83 444.464 82.5854 443.793 81.929 443.464L80.0284 442.514C79.3505 442.175 78.7519 441.697 78.2719 441.11L70 431L62 422L49 404L37 384L26 359L16 328L10 300L8.59529 290.869C8.19901 288.294 8 285.691 8 283.085V276.59C8 272.914 8.85593 269.288 10.5 266V266C12.1441 262.712 14.5311 259.852 17.4721 257.646L20.5056 255.371C20.8345 255.124 21.185 254.907 21.5528 254.724V254.724C22.5045 254.248 23.554 254 24.618 254H27.3944C30.3975 254 33.3334 254.889 35.8321 256.555V256.555C37.2669 257.511 38.5286 258.705 39.5633 260.084L40.656 261.541C42.86 264.48 44.4122 267.855 45.209 271.441L48 284L52 308L58 329L66 350L77 372L89 391L100 404L107 413L124 430L141 443L154 451L175 462L201 472L226 478V478C234.654 479.331 243.397 480 252.153 480H253.685C265.205 480 276.702 478.963 288.036 476.903L293 476L316 469L317.898 468.165C333.27 461.401 348.026 453.316 362 444V444L373 435V435C379.657 429.009 385.848 422.519 391.519 415.587L392 415L400 405L411 387L421 368L428 349L432 332L434 318L435 286V229L435.608 202.258C435.869 190.769 437.003 179.317 439 168V168V168C442.99 155.365 448.242 143.165 454.676 131.583L455 131L465 117L477 103L489 91L499 82L502.217 79.6607C507.397 75.8933 512.879 72.5604 518.608 69.6959V69.6959C523.53 67.2351 528.62 65.1267 533.84 63.3866L544 60L545.883 59.6234Z" fill="#FBFBFB"/>
<path d="M348.457 2.70864C357.464 0.907286 366.626 0 375.811 0V0C386.568 0 397.288 1.24421 407.758 3.70782L409 4L425 10L430.267 12.6334C436.081 15.5403 441.667 18.8822 446.977 22.6307L447.795 23.2079C453.255 27.0623 458.376 31.376 463.102 36.102L465.893 38.8934C467.962 40.9619 469.881 43.1745 471.636 45.5147L483.194 60.9255C483.717 61.623 484 62.4713 484 63.3431V63.3431C484 64.9549 483.039 66.4117 481.558 67.0466L477.991 68.5752C477.332 68.8576 476.645 69.0676 475.941 69.2018L458.37 72.5486C456.794 72.8489 455.192 73 453.587 73V73C446.808 73 440.307 70.3071 435.514 65.5136L430.295 60.2954C428.105 58.1048 425.686 56.1551 423.08 54.4799L418.161 51.3178C414.727 49.1103 411.105 47.2103 407.336 45.6402V45.6402C403.122 43.8844 398.745 42.5491 394.269 41.6538L393.5 41.5C388.512 40.5024 383.438 40 378.351 40H370.539C366.196 40 361.87 40.5326 357.656 41.5859V41.5859C353.897 42.5258 350.251 43.8744 346.785 45.6075L344.64 46.6802C340.224 48.888 336.037 51.5265 332.14 54.5574L329 57V57C325.014 60.322 321.427 64.0968 318.314 68.2482L314 74L311.409 78.4421C308.475 83.4717 305.972 88.7407 303.928 94.1927L302.61 97.7075C301.538 100.565 300.699 103.503 300.101 106.495V106.495C299.369 110.156 299 113.88 299 117.614V314V314C297.669 327.971 295.06 341.79 291.205 355.283L291 356L287.26 365.082C285.091 370.35 282.45 375.411 279.37 380.203V380.203C276.462 384.726 273.173 388.993 269.54 392.957L264 399V399C258.677 404.323 252.899 409.171 246.731 413.488L246 414V414C236.021 419.322 225.573 423.714 214.789 427.119L212 428L211.617 428.077C205.221 429.356 198.715 430 192.193 430H186.539C182.196 430 177.87 429.467 173.656 428.414L173.44 428.36C169.824 427.456 166.318 426.159 162.984 424.492L159.088 422.544C155.728 420.864 152.728 418.546 150.254 415.719L148.667 413.905C147.564 412.644 146.682 411.205 146.06 409.65V409.65C145.36 407.899 145 406.031 145 404.146V403.065C145 401.059 145.545 399.092 146.577 397.372L146.674 397.209C147.545 395.759 148.759 394.545 150.209 393.674V393.674C152.026 392.585 154.133 392.081 156.246 392.232L167 393H183.341C188.433 393 193.51 392.462 198.489 391.395L199.083 391.268C203.019 390.424 206.87 389.221 210.586 387.673V387.673C214.85 385.896 218.915 383.674 222.713 381.045L226.464 378.448C228.817 376.819 231.018 374.982 233.041 372.959V372.959C235.671 370.329 237.985 367.4 239.935 364.231L245 356L252 340L256 326L257 320L258 289V147L258.594 121.46C258.864 109.851 260.341 98.3027 263 87V87L264.785 80.9324C266.922 73.6665 269.856 66.6592 273.534 60.0386V60.0386C276.505 54.6902 279.949 49.6181 283.823 44.8829L287 41L294.761 33.2387C298.914 29.0856 303.397 25.2421 308.133 21.7688V21.7688C313.355 17.9398 318.911 14.5444 324.703 11.6487V11.6487C329.561 9.2193 334.587 7.13783 339.74 5.41998L347 3L348.457 2.70864Z" fill="#FBFBFB"/>
<path d="M14.5862 3.13792C16.8233 2.39223 19.2163 2.24325 21.5285 2.70571L22.9191 2.98383C26.245 3.64899 29.3303 5.19731 31.8514 7.46622L38 13L49 25L63 37L76 47L90 57L106 69L126 81L148 94L165 102L189 111L214 117L235 121V121C239.636 121.58 243.199 125.384 243.473 130.048L245 156V156C245.523 159.141 243.101 162 239.917 162H234L219 160L195 155L165 145L146 137L136 133L120 125L102 114L91 106L69 92L49.9555 78.1495C48.7255 77.2549 47 78.1335 47 79.6545V79.6545C47 79.8829 47.042 80.1093 47.124 80.3225L57 106L69 131L84 156L96 173L107 187L119 201L128 211L135 219L143 226L156 237L166 244L186 256L201 263L223 271L237.9 274.725C238.62 274.905 239.277 275.277 239.801 275.801V275.801C240.569 276.569 241 277.61 241 278.695V312.482C241 312.826 240.958 313.169 240.874 313.503V313.503C240.371 315.516 238.476 316.861 236.41 316.674L230.089 316.099C229.365 316.033 228.648 315.899 227.949 315.7L215 312L192 304L176 297L153 284L139 275L121 261L109 250L101 243L81 223L72 212L60 196L51 183L39 163L28 142L16 113L7 85L1 54L0 46V25.7927C0 22.6267 0.604124 19.4897 1.77996 16.5501L1.85159 16.371C3.26378 12.8406 5.49186 9.69463 8.35348 7.1907L9.94837 5.79517C11.3026 4.61026 12.8792 3.70694 14.5862 3.13792V3.13792Z" fill="#FBFBFB"/>
<path d="M163.449 185.189C165.061 183.173 167.503 182 170.084 182H171.981C173.318 182 174.647 182.216 175.916 182.639L210 194L238.662 200.918C238.887 200.973 239.104 201.052 239.311 201.156V201.156C240.346 201.673 241 202.731 241 203.888V223.37C241 231.69 233.74 238.146 225.477 237.174V237.174C224.495 237.058 223.528 236.838 222.593 236.518L195.036 227.069C191.019 225.692 187.121 223.988 183.382 221.975L179.239 219.744C177.086 218.585 175.064 217.197 173.207 215.606V215.606C170.42 213.218 168.037 210.396 166.149 207.249L164.832 205.053C163.617 203.029 162.709 200.836 162.137 198.546L161.717 196.866C161.243 194.973 161.142 193.007 161.418 191.075L161.672 189.296C161.887 187.793 162.5 186.375 163.449 185.189V185.189Z" fill="#FBFBFB"/>
<circle cx="371" cy="283" r="17" fill="white"/>
<circle cx="371" cy="222" r="17" fill="white"/>
<circle cx="371" cy="111" r="28" fill="white"/>
</svg>
